<svg viewBox="0 0 900 180" xmlns="http://www.w3.org/2000/svg"><rect width="900" height="180" fill="white"/><text x="450.0" y="18" font-size="13" fill="#b45309" text-anchor="middle" font-family="sans-serif" font-weight="bold">SYNTHETIC ECG — RESEARCH ARTIFACT — NOT A MEASUREMENT</text><polyline points="20.0,110.0 20.9,110.0 21.7,110.0 22.6,110.0 23.5,110.0 24.4,110.0 25.2,110.0 26.1,110.0 27.0,110.0 27.8,110.0 28.7,110.0 29.6,110.0 30.5,110.0 31.3,110.0 32.2,110.0 33.1,110.0 33.9,110.0 34.8,110.0 35.7,110.0 36.5,110.0 37.4,110.0 38.3,110.0 39.2,110.0 40.0,110.0 40.9,110.0 41.8,110.0 42.6,110.0 43.5,110.0 44.4,110.0 45.3,110.0 46.1,110.0 47.0,110.0 47.9,110.0 48.7,110.0 49.6,110.0 50.5,110.0 51.4,110.0 52.2,110.0 53.1,110.0 54.0,110.0 54.8,110.0 55.7,110.0 56.6,110.0 57.4,110.0 58.3,110.0 59.2,110.0 60.1,110.0 60.9,110.0 61.8,110.0 62.7,110.0 63.5,110.0 64.4,110.0 65.3,110.0 66.2,110.0 67.0,110.0 67.9,110.0 68.8,110.0 69.6,110.0 70.5,110.0 71.4,110.0 72.3,110.0 73.1,110.0 74.0,110.0 74.9,110.0 75.7,107.1 76.6,106.8 77.5,106.4 78.3,106.2 79.2,106.2 80.1,106.4 81.0,106.7 81.8,107.3 82.7,108.7 83.6,110.6 84.4,113.1 85.3,116.6 86.2,120.7 87.1,125.6 87.9,131.1 88.8,137.1 89.7,143.1 90.5,148.2 91.4,149.3 92.3,150.0 93.2,149.9 94.0,148.6 94.9,146.5 95.8,143.5 96.6,138.5 97.5,132.2 98.4,125.7 99.2,119.6 100.1,114.3 101.0,109.6 101.9,106.7 102.7,104.0 103.6,101.5 104.5,99.1 105.3,97.2 106.2,95.6 107.1,94.3 108.0,94.3 108.8,94.5 109.7,95.0 110.6,95.8 111.4,96.8 112.3,98.4 113.2,100.1 114.1,101.7 114.9,103.2 115.8,104.5 116.7,105.8 117.5,106.7 118.4,107.3 119.3,107.9 120.2,108.4 121.0,109.0 121.9,109.6 122.8,110.2 123.6,109.7 124.5,109.0 125.4,108.8 126.2,109.0 127.1,109.2 128.0,109.0 128.9,108.7 129.7,109.0 130.6,109.3 131.5,109.4 132.3,109.6 133.2,109.9 134.1,110.3 135.0,110.7 135.8,110.9 136.7,111.1 137.6,110.9 138.4,110.2 139.3,109.4 140.2,108.6 141.1,107.9 141.9,107.6 142.8,107.5 143.7,107.2 144.5,107.0 145.4,106.8 146.3,106.7 147.1,106.7 148.0,107.0 148.9,107.8 149.8,109.0 150.6,110.9 151.5,113.5 152.4,117.0 153.2,121.1 154.1,125.7 155.0,130.8 155.9,136.3 156.7,141.6 157.6,143.1 158.5,144.1 159.3,144.7 160.2,144.2 161.1,143.0 162.0,141.0 162.8,137.7 163.7,132.6 164.6,127.2 165.4,121.7 166.3,116.2 167.2,112.1 168.0,109.5 168.9,107.2 169.8,105.0 170.7,102.9 171.5,100.9 172.4,99.1 173.3,97.5 174.1,96.1 175.0,94.8 175.9,94.9 176.8,95.3 177.6,95.9 178.5,96.7 179.4,97.7 180.2,99.4 181.1,101.0 182.0,102.4 182.9,103.8 183.7,105.1 184.6,106.0 185.5,106.8 186.3,107.6 187.2,108.4 188.1,109.2 188.9,110.0 189.8,110.8 190.7,110.5 191.6,110.2 192.4,110.3 193.3,110.6 194.2,110.6 195.0,109.9 195.9,109.3 196.8,108.8 197.7,108.3 198.5,107.8 199.4,107.3 200.3,107.7 201.1,108.0 202.0,108.4 202.9,108.9 203.8,109.4 204.6,109.9 205.5,109.8 206.4,109.4 207.2,108.8 208.1,108.4 209.0,108.1 209.8,108.0 210.7,107.7 211.6,107.4 212.5,107.1 213.3,106.9 214.2,106.8 215.1,106.9 215.9,107.2 216.8,107.7 217.7,108.5 218.6,109.8 219.4,111.5 220.3,113.6 221.2,116.3 222.0,119.5 222.9,122.8 223.8,126.4 224.7,130.4 225.5,134.4 226.4,136.3 227.3,136.9 228.1,137.2 229.0,137.0 229.9,136.4 230.8,135.2 231.6,133.4 232.5,129.5 233.4,124.7 234.2,119.9 235.1,116.7 236.0,113.9 236.8,111.9 237.7,110.0 238.6,108.0 239.5,106.2 240.3,104.4 241.2,102.8 242.1,101.3 242.9,99.9 243.8,98.5 244.7,97.2 245.6,97.1 246.4,97.4 247.3,97.8 248.2,98.6 249.0,99.8 249.9,101.0 250.8,102.2 251.7,103.5 252.5,104.4 253.4,105.2 254.3,105.9 255.1,106.8 256.0,107.7 256.9,108.6 257.7,108.7 258.6,108.8 259.5,109.1 260.4,109.5 261.2,110.2 262.1,110.9 263.0,110.9 263.8,110.3 264.7,109.9 265.6,109.4 266.5,108.6 267.3,107.7 268.2,107.3 269.1,107.3 269.9,107.4 270.8,107.5 271.7,107.7 272.6,107.9 273.4,107.8 274.3,107.4 275.2,106.8 276.0,106.4 276.9,106.2 277.8,105.8 278.6,105.6 279.5,105.4 280.4,105.1 281.3,104.8 282.1,104.6 283.0,104.3 283.9,104.2 284.7,104.2 285.6,104.3 286.5,104.6 287.4,105.5 288.2,107.0 289.1,109.4 290.0,112.5 290.8,116.1 291.7,120.4 292.6,125.2 293.5,130.4 294.3,135.8 295.2,137.5 296.1,138.6 296.9,139.1 297.8,138.9 298.7,138.1 299.5,136.7 300.4,133.1 301.3,128.6 302.2,123.6 303.0,118.3 303.9,113.7 304.8,110.8 305.6,108.5 306.5,106.4 307.4,104.4 308.3,102.4 309.1,100.5 310.0,98.7 310.9,97.1 311.7,95.6 312.6,95.1 313.5,95.2 314.4,95.6 315.2,96.1 316.1,96.9 317.0,98.4 317.8,100.1 318.7,101.8 319.6,103.4 320.5,104.9 321.3,106.3 322.2,107.4 323.1,108.3 323.9,109.1 324.8,109.9 325.7,110.8 326.5,110.6 327.4,110.2 328.3,109.9 329.2,109.6 330.0,109.6 330.9,109.8 331.8,109.3 332.6,108.6 333.5,109.1 334.4,109.5 335.3,109.6 336.1,109.7 337.0,109.6 337.9,110.0 338.7,110.4 339.6,110.8 340.5,111.2 341.4,111.7 342.2,111.4 343.1,110.9 344.0,110.2 344.8,109.6 345.7,108.9 346.6,108.2 347.4,107.6 348.3,107.2 349.2,106.9 350.1,106.6 350.9,106.4 351.8,106.5 352.7,106.8 353.5,107.8 354.4,109.3 355.3,111.7 356.2,115.1 357.0,119.5 357.9,124.6 358.8,130.3 359.6,136.1 360.5,142.0 361.4,145.4 362.3,146.6 363.1,147.2 364.0,147.1 364.9,146.1 365.7,144.3 366.6,141.9 367.5,137.4 368.3,131.6 369.2,125.8 370.1,119.7 371.0,114.0 371.8,109.6 372.7,107.1 373.6,104.6 374.4,102.3 375.3,100.1 376.2,98.2 377.1,96.4 377.9,94.8 378.8,94.3 379.7,94.5 380.5,94.9 381.4,95.6 382.3,96.6 383.2,97.7 384.0,99.4 384.9,101.3 385.8,103.1 386.6,104.7 387.5,106.1 388.4,107.2 389.2,108.0 390.1,108.6 391.0,109.4 391.9,110.2 392.7,110.8 393.6,111.3 394.5,110.4 395.3,109.4 396.2,108.7 397.1,108.4 398.0,108.2 398.8,107.4 399.7,106.3 400.6,105.9 401.4,105.9 402.3,105.8 403.2,105.6 404.1,105.8 404.9,106.0 405.8,106.4 406.7,107.0 407.5,107.6 408.4,108.2 409.3,108.2 410.2,107.7 411.0,107.1 411.9,106.7 412.8,106.4 413.6,106.0 414.5,105.3 415.4,104.9 416.2,104.7 417.1,104.6 418.0,104.7 418.9,105.1 419.7,105.7 420.6,106.7 421.5,108.1 422.3,110.0 423.2,112.6 424.1,115.8 425.0,119.6 425.8,124.1 426.7,129.0 427.6,134.0 428.4,138.7 429.3,140.4 430.2,141.0 431.1,141.2 431.9,140.5 432.8,139.2 433.7,137.6 434.5,135.4 435.4,130.8 436.3,125.6 437.1,120.5 438.0,116.2 438.9,113.3 439.8,111.1 440.6,109.0 441.5,106.9 442.4,105.0 443.2,103.2 444.1,101.5 445.0,100.0 445.9,98.5 446.7,97.2 447.6,96.8 448.5,97.1 449.3,97.5 450.2,98.1 451.1,99.2 452.0,100.8 452.8,102.3 453.7,103.6 454.6,104.9 455.4,105.9 456.3,106.5 457.2,107.2 458.0,107.9 458.9,108.6 459.8,109.4 460.7,110.3 461.5,110.2 462.4,110.3 463.3,110.3 464.1,110.5 465.0,110.8 465.9,110.6 466.8,109.6 467.6,108.9 468.5,108.2 469.4,107.5 470.2,106.9 471.1,106.7 472.0,107.0 472.9,107.3 473.7,107.5 474.6,107.9 475.5,108.4 476.3,108.9 477.2,108.9 478.1,108.4 478.9,107.9 479.8,107.8 480.7,107.5 481.6,107.0 482.4,106.4 483.3,105.7 484.2,105.3 485.0,105.0 485.9,104.9 486.8,105.0 487.7,105.1 488.5,105.5 489.4,106.3 490.3,107.4 491.1,109.0 492.0,111.1 492.9,113.6 493.8,116.6 494.6,120.0 495.5,123.7 496.4,127.5 497.2,131.4 498.1,135.1 499.0,135.8 499.8,136.4 500.7,136.7 501.6,136.3 502.5,135.4 503.3,134.1 504.2,131.4 505.1,126.8 505.9,122.0 506.8,118.0 507.7,115.2 508.6,112.8 509.4,110.8 510.3,108.7 511.2,106.8 512.0,105.0 512.9,103.3 513.8,101.6 514.7,99.9 515.5,98.4 516.4,97.1 517.3,96.6 518.1,96.8 519.0,97.2 519.9,97.8 520.8,99.1 521.6,100.4 522.5,101.8 523.4,103.2 524.2,104.3 525.1,105.2 526.0,106.0 526.8,106.8 527.7,107.8 528.6,108.8 529.5,109.7 530.3,109.8 531.2,110.1 532.1,110.4 532.9,110.9 533.8,111.7 534.7,111.9 535.6,111.2 536.4,110.7 537.3,110.4 538.2,109.6 539.0,109.2 539.9,109.0 540.8,108.7 541.7,108.8 542.5,108.9 543.4,108.9 544.3,109.0 545.1,108.9 546.0,108.5 546.9,107.9 547.7,107.2 548.6,106.5 549.5,106.1 550.4,105.5 551.2,105.0 552.1,104.4 553.0,103.8 553.8,103.5 554.7,103.3 555.6,103.2 556.5,103.2 557.3,103.5 558.2,104.0 559.1,105.1 559.9,107.0 560.8,109.7 561.7,113.2 562.6,117.6 563.4,122.7 564.3,128.2 565.2,133.9 566.0,139.1 566.9,140.4 567.8,141.3 568.6,141.6 569.5,141.2 570.4,140.2 571.3,138.5 572.1,134.5 573.0,129.8 573.9,124.6 574.7,119.1 575.6,114.0 576.5,110.4 577.4,108.0 578.2,105.6 579.1,103.5 580.0,101.4 580.8,99.4 581.7,97.6 582.6,95.9 583.5,94.4 584.3,94.3 585.2,94.6 586.1,95.1 586.9,95.7 587.8,96.7 588.7,98.2 589.5,100.0 590.4,101.8 591.3,103.6 592.2,105.1 593.0,106.5 593.9,107.7 594.8,108.5 595.6,109.2 596.5,110.0 597.4,110.8 598.3,111.2 599.1,110.6 600.0,110.0 600.9,109.3 601.7,109.2 602.6,109.2 603.5,108.5 604.4,107.6 605.2,107.6 606.1,107.9 607.0,108.2 607.8,108.4 608.7,108.5 609.6,109.1 610.5,109.6 611.3,110.0 612.2,110.6 613.1,111.2 613.9,111.2 614.8,110.6 615.7,109.9 616.5,109.3 617.4,108.6 618.3,107.8 619.2,107.2 620.0,106.4 620.9,105.9 621.8,105.5 622.6,105.2 623.5,105.3 624.4,106.0 625.3,107.1 626.1,108.8 627.0,111.4 627.9,115.0 628.7,119.4 629.6,124.6 630.5,130.6 631.4,136.9 632.2,143.1 633.1,146.2 634.0,147.2 634.8,147.7 635.7,147.4 636.6,146.2 637.4,144.4 638.3,141.8 639.2,137.4 640.1,131.8 640.9,126.0 641.8,120.0 642.7,114.3 643.5,110.3 644.4,107.9 645.3,105.4 646.2,103.0 647.0,100.8 647.9,98.9 648.8,97.0 649.6,95.4 650.5,94.4 651.4,94.6 652.3,94.9 653.1,95.6 654.0,96.6 654.9,97.7 655.7,99.3 656.6,101.2 657.5,103.0 658.3,104.6 659.2,106.0 660.1,107.3 661.0,108.0 661.8,108.6 662.7,109.2 663.6,109.7 664.4,110.4 665.3,111.1 666.2,110.8 667.1,110.0 667.9,109.5 668.8,109.3 669.7,109.2 670.5,108.5 671.4,107.2 672.3,106.5 673.2,106.1 674.0,105.9 674.9,105.8 675.8,105.9 676.6,106.0 677.5,106.3 678.4,106.9 679.2,107.6 680.1,108.1 681.0,108.5 681.9,108.1 682.7,107.4 683.6,107.1 684.5,106.7 685.3,106.3 686.2,105.6 687.1,104.9 688.0,104.4 688.8,104.0 689.7,103.8 690.6,104.1 691.4,104.7 692.3,105.5 693.2,106.8 694.1,108.6 694.9,110.9 695.8,113.8 696.7,117.3 697.5,121.5 698.4,126.0 699.3,130.8 700.2,135.7 701.0,139.4 701.9,140.1 702.8,140.4 703.6,140.2 704.5,139.0 705.4,137.7 706.2,136.1 707.1,132.9 708.0,128.0 708.9,123.0 709.7,118.4 710.6,115.3 711.5,112.8 712.3,110.8 713.2,108.8 714.1,106.8 715.0,105.0 715.8,103.3 716.7,101.6 717.6,100.0 718.4,98.6 719.3,97.3 720.2,97.0 721.1,97.2 721.9,97.7 722.8,98.4 723.7,99.7 724.5,101.1 725.4,102.5 726.3,103.9 727.1,105.0 728.0,105.8 728.9,106.5 729.8,107.2 730.6,108.0 731.5,108.7 732.4,109.6 733.2,109.7 734.1,109.9 735.0,110.1 735.9,110.3 736.7,110.7 737.6,110.7 738.5,109.8 739.3,108.6 740.2,108.0 741.1,107.0 742.0,106.1 742.8,105.4 743.7,105.4 744.6,105.7 745.4,105.9 746.3,106.2 747.2,106.5 748.0,107.0 748.9,106.8 749.8,106.5 750.7,106.0 751.5,105.9 752.4,105.8 753.3,105.6 754.1,105.3 755.0,104.8 755.9,104.3 756.8,103.9 757.6,103.7 758.5,103.7 759.4,103.8 760.2,104.1 761.1,104.8 762.0,105.8 762.9,107.2 763.7,109.1 764.6,111.6 765.5,114.6 766.3,118.3 767.2,122.5 768.1,127.3 768.9,132.2 769.8,136.7 770.7,137.5 771.6,138.1 772.4,138.1 773.3,137.5 774.2,136.7 775.0,135.3 775.9,131.7 776.8,127.1 777.7,122.3 778.5,117.5 779.4,114.3 780.3,111.7 781.1,109.7 782.0,107.6 782.9,105.5 783.8,103.6 784.6,101.7 785.5,99.9 786.4,98.3 787.2,96.7 788.1,95.3 789.0,95.3 789.8,95.6 790.7,96.1 791.6,96.7 792.5,98.1 793.3,99.7 794.2,101.2 795.1,102.6 795.9,103.9 796.8,105.1 797.7,105.9 798.6,106.7 799.4,107.5 800.3,108.4 801.2,109.4 802.0,109.9 802.9,110.0 803.8,110.2 804.7,110.3 805.5,110.6 806.4,110.9 807.3,110.4 808.1,109.7 809.0,109.4 809.9,109.7 810.8,109.8 811.6,109.8 812.5,109.8 813.4,110.0 814.2,110.3 815.1,110.7 816.0,111.1 816.8,111.3 817.7,111.2 818.6,110.8 819.5,110.4 820.3,109.8 821.2,109.2 822.1,108.8 822.9,108.5 823.8,108.1 824.7,107.6 825.6,107.1 826.4,106.9 827.3,106.9 828.2,107.1 829.0,107.6 829.9,108.6 830.8,110.1 831.7,112.3 832.5,115.3 833.4,119.1 834.3,123.7 835.1,129.0 836.0,134.8 836.9,140.8 837.7,143.5 838.6,144.5 839.5,145.0 840.4,144.7 841.2,143.5 842.1,142.0 843.0,139.9 843.8,135.3 844.7,130.0 845.6,124.4 846.5,118.6 847.3,113.2 848.2,109.8 849.1,107.4 849.9,104.9 850.8,102.5 851.7,100.3 852.6,98.3 853.4,96.4 854.3,94.8 855.2,93.6 856.0,93.7 856.9,94.0 857.8,94.5 858.6,95.4 859.5,96.6 860.4,98.4 861.3,100.2 862.1,102.1 863.0,103.8 863.9,105.4 864.7,106.8 865.6,107.7 866.5,108.4 867.4,109.1 868.2,109.8 869.1,110.6 870.0,110.1 870.8,109.6 871.7,109.0 872.6,108.7 873.5,108.9 874.3,108.7 875.2,107.7 876.1,106.6 876.9,106.2 877.8,106.0 878.7,105.8 879.5,105.4 880.4,105.5 881.3,106.2 882.2,106.8 883.0,107.4 883.9,108.1 884.8,108.5 885.6,108.3 886.5,108.6 887.4,108.9 888.3,109.1 889.1,109.2 890.0,109.3" fill="none" stroke="#333" stroke-width="1"/><text x="450.0" y="172" font-size="11" fill="#b45309" text-anchor="middle" font-family="sans-serif">SYNTHETIC ECG — RESEARCH ARTIFACT — NOT A MEASUREMENT</text></svg>